<?xml version="1.0" encoding="UTF-8"?>
<svg version="1.1" xmlns="http://www.w3.org/2000/svg" width="3544" height="1182">
<path d="M0 0 C1.68289757 -0.00015556 3.36579548 -0.0016539 5.0486908 -0.00440979 C8.53872936 -0.00577944 12.02834971 0.00653165 15.51831055 0.02954102 C19.97323027 0.05812183 24.42746774 0.05511534 28.88243961 0.0424509 C32.34244044 0.03547869 35.80228527 0.04329729 39.26226616 0.05570793 C40.90518024 0.06019345 42.54811121 0.06058486 44.19102669 0.05664253 C62.45636221 0.03328624 62.45636221 0.03328624 69.01953125 5.29296875 C69.55835937 5.9375 70.0971875 6.58203125 70.65234375 7.24609375 C71.20664063 7.8803125 71.7609375 8.51453125 72.33203125 9.16796875 C75.97461799 15.03548685 76.06466108 21.12286828 76.02026367 27.82080078 C76.02213936 28.73737552 76.02401505 29.65395025 76.02594757 30.59829998 C76.02960627 33.65025308 76.01883076 36.70197347 76.0078125 39.75390625 C76.00695387 41.9358468 76.00687563 44.11778777 76.00752258 46.29972839 C76.00636632 52.18512319 75.99197367 58.07041732 75.97457886 63.95578384 C75.96485906 67.61533023 75.9590132 71.27486134 75.95458984 74.93441772 C75.89591923 123.45832522 75.43585867 171.97693655 74.77734375 220.49609375 C75.47215347 220.24080399 76.1669632 219.98551422 76.88282776 219.7224884 C80.09722908 218.54455831 83.31420619 217.37381797 86.53125 216.203125 C87.62360962 215.80162231 88.71596924 215.40011963 89.84143066 214.9864502 C118.37206446 204.63229339 148.5018517 200.26146149 178.77734375 200.30859375 C179.50000427 200.309198 180.22266479 200.30980225 180.96722412 200.3104248 C192.99854744 200.33759926 204.85372571 200.80896446 216.77734375 202.49609375 C217.66969727 202.61968262 218.56205078 202.74327148 219.48144531 202.87060547 C283.62883914 212.08718504 344.61915323 247.07957793 384.5546875 298.52734375 C385.28816406 299.50703125 386.02164063 300.48671875 386.77734375 301.49609375 C387.86196639 302.90235361 388.9466031 304.3086026 390.03125 305.71484375 C407.67281488 328.84800261 421.14513892 354.69149024 429.77734375 382.49609375 C430.12853271 383.61395264 430.12853271 383.61395264 430.48681641 384.75439453 C433.21095155 393.55977792 435.28075536 402.43549198 436.96484375 411.49609375 C437.11977295 412.3247998 437.27470215 413.15350586 437.43432617 414.00732422 C440.57026635 431.84650485 441.07600963 449.3759055 441.06787109 467.45385742 C441.07386674 470.1316531 441.08061977 472.80943775 441.08822632 475.48722839 C441.10470242 481.9628733 441.11032955 488.43848177 441.11145107 494.91414591 C441.11240709 500.18199453 441.1165447 505.4498313 441.12285233 510.71767616 C441.14042099 525.69783335 441.149697 540.67796209 441.14819138 555.65812965 C441.14807151 556.86460767 441.14807151 556.86460767 441.14794922 558.09545898 C441.14786746 558.90077375 441.1477857 559.70608851 441.14770146 560.53580675 C441.14688775 573.59989487 441.16605828 586.66386793 441.19422595 599.72792276 C441.22301135 613.1858909 441.23676343 626.64380297 441.2350384 640.10180265 C441.2343769 647.64012965 441.2397647 655.17833569 441.2613945 662.71663475 C441.27968012 669.129588 441.28389278 675.54236529 441.27037565 681.95533343 C441.26388551 685.2201625 441.26579647 688.48458784 441.28108215 691.74939728 C441.35262465 708.09510224 440.88464698 722.86380255 433.21484375 737.68359375 C432.8796875 738.34157959 432.54453125 738.99956543 432.19921875 739.67749023 C428.45653707 746.64350584 423.4375283 752.04523556 417.77734375 757.49609375 C417.1328125 758.15996094 416.48828125 758.82382812 415.82421875 759.5078125 C399.10624448 775.68063543 376.26062284 777.64111292 354.2421875 777.69921875 C353.51237734 777.70204613 352.78256718 777.7048735 352.03064156 777.70778656 C348.1752907 777.72267212 344.3199763 777.73197105 340.46459961 777.73632812 C336.5084839 777.74182627 332.55270996 777.76591288 328.59670162 777.79430008 C325.52786803 777.8130078 322.45911595 777.81813616 319.39023018 777.819664 C317.93232906 777.82266796 316.47442858 777.83061906 315.0165844 777.84384918 C295.96943182 778.00451005 295.96943182 778.00451005 288.90234375 771.74609375 C288.36867188 771.2975 287.835 770.84890625 287.28515625 770.38671875 C282.0355249 763.80427944 282.35397035 756.95918611 282.40553284 748.89274597 C282.40170827 747.62131329 282.39788371 746.34988062 282.39394325 745.03991967 C282.38369297 741.52170563 282.39195686 738.0037433 282.40324008 734.48554146 C282.4121078 730.68636338 282.40358571 726.8872204 282.39703369 723.08804321 C282.38788178 716.50528377 282.38920295 709.92259407 282.3972187 703.33983421 C282.4084655 693.80271744 282.39939459 684.26569966 282.3846569 674.72859148 C282.36088532 659.22864928 282.34752027 643.72871931 282.34350586 628.22875977 C282.34326099 627.30137744 282.34301612 626.37399512 282.34276383 625.4185103 C282.34022104 615.08532173 282.33964947 604.75213411 282.34069824 594.41894531 C282.34103124 590.6784668 282.34131665 586.93798829 282.34155273 583.19750977 C282.34161552 582.27459647 282.34167831 581.35168318 282.341743 580.40080281 C282.34234937 564.97127839 282.32740124 549.54181024 282.30071968 534.11230928 C282.28497045 524.6095602 282.28259778 515.10699355 282.2978537 505.60424272 C282.30736918 499.07991498 282.3024858 492.55569652 282.28663988 486.03138151 C282.27800377 482.27618158 282.27566274 478.52127283 282.29116631 474.76608849 C282.4206634 441.11331968 275.71773909 413.22555411 251.77734375 388.49609375 C230.43617814 368.06493657 203.2829731 358.92529894 174.03125 359.27734375 C149.79483333 359.9871784 127.82679933 369.65209462 109.77734375 385.49609375 C108.94589844 386.22570312 108.11445313 386.9553125 107.2578125 387.70703125 C87.56861702 406.25832226 76.7003743 433.6862534 75.66227388 460.46435428 C75.48633855 468.58220145 75.5043264 476.70155075 75.51930571 484.82087457 C75.52388382 488.52428305 75.51677673 492.22767182 75.51100159 495.93107605 C75.50241148 502.33308598 75.50054993 508.7350683 75.50294876 515.13708305 C75.5060597 524.40178403 75.49436229 533.66642448 75.47839896 542.93111015 C75.45250049 557.97774966 75.43244669 573.0243892 75.41894531 588.07104492 C75.41772976 589.41889375 75.41772976 589.41889375 75.41648965 590.79397184 C75.40525232 603.56410859 75.39998247 616.33424096 75.39710252 629.10438199 C75.39689853 630.00507021 75.39669454 630.90575843 75.39648438 631.83374023 C75.39628444 632.73332281 75.3960845 633.63290539 75.39587851 634.55974805 C75.39214531 649.56233929 75.37306426 664.56486435 75.34139001 679.56742245 C75.32249211 688.80969304 75.31650353 698.05179384 75.32720719 707.29407842 C75.33352717 713.62156757 75.32548341 719.94893481 75.30615307 726.27639722 C75.29547645 729.92509703 75.29131072 733.57350072 75.30462456 737.22219849 C75.31892022 741.17961918 75.30234066 745.1365727 75.28286743 749.09397888 C75.29199209 750.24329264 75.30111675 751.39260639 75.31051791 752.57674783 C75.24179175 759.74683723 74.39490334 765.60788268 69.36550009 771.01356596 C64.75615415 775.11495829 60.46009964 776.74155352 54.36380005 776.76351929 C53.29003113 776.77204926 52.21626221 776.78057922 51.10995483 776.78936768 C49.942034 776.7884613 48.77411316 776.78755493 47.57080078 776.78662109 C46.33285767 776.79333832 45.09491455 776.80005554 43.81945801 776.80697632 C40.43088722 776.82270553 37.04256156 776.82933052 33.6539712 776.83060789 C31.53471361 776.83203155 29.41548155 776.83630519 27.29623032 776.84160233 C19.89652633 776.86009335 12.49689429 776.86827407 5.09716797 776.86669922 C-1.79037942 776.86549794 -8.67761338 776.88659974 -15.56508148 776.91818655 C-21.48712598 776.9443738 -27.40906827 776.9550655 -33.3311702 776.9537884 C-36.86432368 776.9532795 -40.39719846 776.95892254 -43.93029404 776.9801445 C-47.87276101 777.00318001 -51.81480098 776.99399092 -55.75732422 776.98193359 C-56.92119659 776.99317261 -58.08506897 777.00441162 -59.28421021 777.01599121 C-66.91591476 776.95667892 -71.30444184 775.90565558 -77.1484375 770.8203125 C-77.60605469 770.28019531 -78.06367188 769.74007812 -78.53515625 769.18359375 C-79.00566406 768.65121094 -79.47617188 768.11882813 -79.9609375 767.5703125 C-83.8608547 761.15899352 -83.50571256 754.16929414 -83.47433853 746.91070366 C-83.47724541 745.74323203 -83.48015229 744.57576041 -83.48314726 743.37291086 C-83.48919003 740.13113329 -83.4862769 736.88950613 -83.47959136 733.64773438 C-83.47451834 730.12128089 -83.48103767 726.59484568 -83.48607802 723.06839478 C-83.49330446 716.8872367 -83.49308038 710.70611354 -83.4879837 704.52495384 C-83.48042515 695.33310197 -83.48428297 686.14127962 -83.49040032 676.94942795 C-83.50093941 660.53200392 -83.5000158 644.11459544 -83.49424249 627.69716992 C-83.48921368 613.32636199 -83.48789689 598.95555976 -83.49028778 584.58475113 C-83.49044055 583.631926 -83.49059332 582.67910086 -83.49075072 581.69740224 C-83.49137339 577.82962086 -83.49201019 573.96183948 -83.49267025 570.09405811 C-83.49879089 533.79592549 -83.49323766 497.49780278 -83.48247645 461.1996717 C-83.47298955 428.95472373 -83.47383035 396.70979157 -83.48339844 364.46484375 C-83.49411075 328.24264602 -83.49835226 292.02045705 -83.49217391 255.79825795 C-83.49153248 251.93561562 -83.4909068 248.07297329 -83.49028778 244.21033096 C-83.49012963 243.25924228 -83.48997147 242.3081536 -83.48980852 241.32824406 C-83.48753438 226.97103313 -83.49019273 212.61382855 -83.49524689 198.2566185 C-83.50096714 181.92574996 -83.49953225 165.59489942 -83.4886854 149.26403312 C-83.48281622 140.1262941 -83.48242454 130.98859405 -83.48997775 121.85085604 C-83.49446874 115.74354807 -83.49166011 109.63627129 -83.48296821 103.52896793 C-83.47822022 100.05151802 -83.47656395 96.57414545 -83.48378018 93.09669803 C-83.48986978 89.34323492 -83.48361494 85.58998285 -83.47433853 81.83653069 C-83.47902086 80.76728879 -83.4837032 79.69804689 -83.48852742 78.59640372 C-83.38320885 57.24582007 -77.21172749 37.59977131 -62.03515625 22.21484375 C-44.17355741 4.94863154 -24.13633028 -0.18552638 0 0 Z " fill="#007291" transform="translate(2724.22265625,192.50390625)"/>
<path d="M0 0 C51.79122169 -1.13019578 100.40185423 9.80475369 147.44677734 31.06640625 C148.09549805 31.35837891 148.74421875 31.65035156 149.41259766 31.95117188 C168.39615882 40.62050389 185.22224473 53.09148001 201.44677734 66.06640625 C202.10564941 66.59250488 202.76452148 67.11860352 203.44335938 67.66064453 C212.43366569 74.93345739 220.62662506 83.04949864 228.82177734 91.19140625 C229.33269928 91.69687988 229.84362122 92.20235352 230.37002563 92.72314453 C237.18965769 99.48853154 243.48750498 106.5206136 249.44677734 114.06640625 C250.3996343 115.2356563 251.35381233 116.40383269 252.31005859 117.5703125 C304.31340457 182.51229001 322.73505095 264.30093401 314.44677734 346.06640625 C307.5480276 407.40861386 281.86414447 462.76902399 241.44677734 509.06640625 C240.78033203 509.845 240.11388672 510.62359375 239.42724609 511.42578125 C228.18928992 524.28182579 215.98169853 536.6429612 202.44677734 547.06640625 C201.28778671 548.01097005 200.1317418 548.95915518 198.97802734 549.91015625 C179.69094078 565.74879252 158.52550335 578.54746013 135.44677734 588.06640625 C134.23803955 588.57083252 134.23803955 588.57083252 133.00488281 589.08544922 C61.11438346 618.98481885 -20.75073169 622.65555412 -94.55322266 597.06640625 C-95.28621582 596.81246094 -96.01920898 596.55851563 -96.77441406 596.296875 C-129.35429602 584.85299066 -159.15524945 568.34084668 -185.55322266 546.06640625 C-187.04789063 544.85017578 -187.04789063 544.85017578 -188.57275391 543.609375 C-196.4092537 537.15934198 -203.67475696 530.15832281 -210.86572266 523.00390625 C-211.78458252 522.09423096 -212.70344238 521.18455566 -213.65014648 520.24731445 C-219.71026813 514.15983335 -225.21249928 507.78878983 -230.55322266 501.06640625 C-231.60157411 499.78836759 -232.652057 498.51207146 -233.70556641 497.23828125 C-244.2651036 484.32254468 -253.25530633 470.5260687 -261.55322266 456.06640625 C-261.9123877 455.44668945 -262.27155273 454.82697266 -262.64160156 454.18847656 C-274.28830153 433.88650563 -282.5231227 411.63182384 -288.55322266 389.06640625 C-288.78734863 388.19838379 -289.02147461 387.33036133 -289.26269531 386.43603516 C-295.17764789 363.98619734 -298.1126238 340.266215 -298.55322266 317.06640625 C-298.57368652 316.28313965 -298.59415039 315.49987305 -298.61523438 314.69287109 C-300.22459436 247.72487519 -282.05872994 180.92050592 -241.55322266 127.06640625 C-240.96275146 126.26976562 -240.96275146 126.26976562 -240.36035156 125.45703125 C-230.05893165 111.57012735 -218.61430201 98.94199821 -206.42822266 86.69140625 C-205.67082794 85.92611099 -205.67082794 85.92611099 -204.89813232 85.14535522 C-198.13187757 78.32458041 -191.10217667 72.02375672 -183.55322266 66.06640625 C-182.10507677 64.89351213 -180.65714467 63.72035396 -179.20947266 62.546875 C-168.78346183 54.2362508 -157.97518379 46.93247454 -146.55322266 40.06640625 C-145.91932617 39.67727051 -145.28542969 39.28813477 -144.63232422 38.88720703 C-136.06943237 33.63408544 -127.30931322 29.64677288 -117.97998047 26.02001953 C-115.37640756 24.99692539 -112.78918969 23.93798261 -110.20166016 22.875 C-74.97890666 8.5413639 -38.00065246 0.98835126 0 0 Z M-92.55322266 200.06640625 C-93.51099609 200.95972656 -94.46876953 201.85304688 -95.45556641 202.7734375 C-121.53201207 227.57940564 -137.75759136 263.56725843 -138.75634766 299.61328125 C-139.18181496 333.01784999 -131.52523184 363.35489188 -112.55322266 391.06640625 C-112.16827637 391.62924316 -111.78333008 392.19208008 -111.38671875 392.77197266 C-89.08335985 424.75324192 -54.899221 444.89956737 -17.12744141 452.78125 C-13.93835907 453.32534001 -10.7708529 453.73091874 -7.55322266 454.06640625 C-6.32087891 454.20046875 -5.08853516 454.33453125 -3.81884766 454.47265625 C33.24127736 457.87627549 71.49220609 446.47722581 100.44677734 423.06640625 C104.60529802 419.56196382 108.53216711 415.83886583 112.44677734 412.06640625 C113.28724609 411.30070313 114.12771484 410.535 114.99365234 409.74609375 C136.25740228 389.76900384 148.4104376 362.1013148 154.44677734 334.06640625 C154.81996094 332.34744141 154.81996094 332.34744141 155.20068359 330.59375 C161.75856445 293.58528951 151.91118516 253.66139245 130.75439453 222.89648438 C126.99697119 217.63777538 122.8384538 212.80163516 118.44677734 208.06640625 C117.89393066 207.46441406 117.34108398 206.86242187 116.77148438 206.2421875 C89.16942649 176.50156418 52.22705091 161.10033843 12.05615234 158.87890625 C-27.09515118 158.09194538 -64.31444707 173.29346024 -92.55322266 200.06640625 Z " fill="#B0CB1F" transform="translate(1136.55322265625,373.93359375)"/>
<path d="M0 0 C1.46427429 0.00273422 1.46427429 0.00273422 2.95812988 0.00552368 C45.77140673 0.13940784 86.58197384 8.33342147 125.9375 25.3125 C126.72560059 25.64862305 127.51370117 25.98474609 128.32568359 26.33105469 C157.93717306 39.09633829 184.36318631 58.52018168 207.9375 80.3125 C208.96134814 81.23406426 209.98614474 82.15457553 211.01171875 83.07421875 C218.7895213 90.08876271 225.99974605 97.46879318 232.9375 105.3125 C233.39334473 105.82361328 233.84918945 106.33472656 234.31884766 106.86132812 C247.46261521 121.67467104 258.50602562 138.01778363 268.58691406 155.03466797 C269.40973548 156.42239823 270.24042216 157.80555416 271.08496094 159.18017578 C275.89011281 167.03484111 277.42480213 174.13148462 275.9375 183.3125 C273.81332763 189.0217734 269.8524282 192.81778971 264.9375 196.3125 C261.63789368 197.72973633 261.63789368 197.72973633 258.0715332 198.83203125 C257.09743862 199.13812065 257.09743862 199.13812065 256.10366535 199.45039368 C254.05307951 200.08836246 251.99680615 200.70332026 249.9375 201.3125 C248.96345026 201.60420074 248.96345026 201.60420074 247.96972275 201.90179443 C243.25571153 203.30910836 238.5261739 204.65893383 233.79296875 206 C232.28803329 206.42900681 230.78317771 206.85829388 229.27839661 207.2878418 C225.35557175 208.40675527 221.43160299 209.52160318 217.50738525 210.63562012 C213.5607775 211.75692466 209.61543831 212.88267533 205.66992188 214.0078125 C198.33401406 216.09888535 190.99598836 218.18239523 183.65618896 220.25976562 C181.35518076 220.91116467 179.05439479 221.56335003 176.75396729 222.21679688 C174.2079963 222.93953125 171.66095473 223.65829485 169.11328125 224.375 C168.4397612 224.56682861 167.76624115 224.75865723 167.0723114 224.95629883 C151.75725922 229.23453594 137.04073363 227.74284815 122.9375 220.3125 C116.59603888 216.17395069 111.48166204 210.99098221 106.25 205.5625 C79.3804742 178.26922541 44.38922691 162.02861612 5.9375 160.3125 C5.02355469 160.27125 4.10960938 160.23 3.16796875 160.1875 C-18.29300498 159.71776596 -40.65542836 164.12780532 -60.0625 173.3125 C-60.79678223 173.65909668 -61.53106445 174.00569336 -62.28759766 174.36279297 C-83.33919179 184.48517747 -101.93137542 198.58054416 -116.0625 217.3125 C-116.66578125 218.11171875 -117.2690625 218.9109375 -117.890625 219.734375 C-129.82857256 236.1893838 -138.25916285 254.58499139 -143.0625 274.3125 C-143.22766113 274.9837793 -143.39282227 275.65505859 -143.56298828 276.34667969 C-148.26704308 296.47633716 -148.03970947 319.25820941 -143.0625 339.3125 C-142.78043701 340.47555664 -142.78043701 340.47555664 -142.49267578 341.66210938 C-135.97378395 367.65469954 -122.99466279 389.65319712 -105.0625 409.3125 C-104.37542969 410.07175781 -103.68835937 410.83101562 -102.98046875 411.61328125 C-80.58356756 435.14181534 -45.07208271 451.99732452 -12.50830078 453.47363281 C-8.40115344 453.51961832 -4.29490943 453.55916055 -0.1875 453.5625 C0.92564575 453.56351212 0.92564575 453.56351212 2.0612793 453.56454468 C12.98968547 453.54873425 23.31573221 453.10592355 33.9375 450.3125 C34.61022949 450.14621094 35.28295898 449.97992187 35.97607422 449.80859375 C65.2479693 442.50583406 89.83778606 426.48656716 110.37060547 404.68164062 C116.78806017 398.00269619 123.86721964 393.03364188 132.6875 390 C133.54859375 389.69449219 134.4096875 389.38898438 135.296875 389.07421875 C156.82620869 382.86383403 179.96563078 392.94285154 200.5 399 C205.39772055 400.43995013 210.29627043 401.87705281 215.1953125 403.3125 C216.38803268 403.66225388 217.58075287 404.01200775 218.80961609 404.37236023 C225.64645077 406.37095352 232.49347407 408.31976161 239.3671875 410.1875 C240.11945114 410.3930098 240.87171478 410.59851959 241.64677429 410.81025696 C244.97681631 411.71853943 248.30882335 412.61324819 251.64868164 413.48510742 C261.88604782 416.26034518 269.35734802 419.86364073 275.03515625 429.09765625 C277.52760987 435.21549696 276.87918582 442.54529355 274.79296875 448.67578125 C273.02189828 452.34288822 271.05088522 455.83652618 268.9375 459.3125 C268.50324707 460.04130371 268.06899414 460.77010742 267.62158203 461.52099609 C260.75389484 472.981524 253.19312834 483.81394468 244.9375 494.3125 C244.15632813 495.30765625 243.37515625 496.3028125 242.5703125 497.328125 C237.78594452 503.28730219 232.70330876 508.92908566 227.50390625 514.5234375 C225.36251785 516.85060845 223.29407371 519.21308615 221.25 521.625 C218.39564572 524.92109959 215.28479292 527.72461021 211.9609375 530.5390625 C209.90941028 532.33711917 208.02230459 534.2282426 206.125 536.1875 C170.39613721 572.26190305 119.80945683 596.1773394 70.9375 607.3125 C69.66374512 607.60398926 69.66374512 607.60398926 68.36425781 607.90136719 C-7.51030958 624.79842398 -92.7860808 612.90960473 -158.99951172 571.62597656 C-186.218623 554.29593884 -212.15324025 532.94473354 -233.0625 508.3125 C-233.86042969 507.40371094 -234.65835937 506.49492188 -235.48046875 505.55859375 C-248.74764451 490.34690098 -259.81733141 473.67306531 -270.0625 456.3125 C-270.44744629 455.6628125 -270.83239258 455.013125 -271.22900391 454.34375 C-293.87946757 415.5690473 -306.27408639 367.11614222 -307.0625 322.3125 C-307.0931958 320.74242187 -307.0931958 320.74242187 -307.12451172 319.140625 C-308.57167836 231.49734278 -279.36171885 153.61398371 -218.44287109 90.63818359 C-212.21381348 84.2643904 -205.93370533 77.99781202 -199.0625 72.3125 C-198.28543701 71.65677002 -198.28543701 71.65677002 -197.49267578 70.98779297 C-156.29346719 36.26680476 -108.04852789 13.21872212 -54.875 4.0625 C-53.99875977 3.91119629 -53.12251953 3.75989258 -52.21972656 3.60400391 C-34.88449957 0.82974064 -17.53294238 -0.06861436 0 0 Z " fill="#007291" transform="translate(2282.0625,373.6875)"/>
<path d="M0 0 C1.76716118 -0.0076664 1.76716118 -0.0076664 3.57002258 -0.01548767 C6.78496728 -0.02696803 9.99975125 -0.02946341 13.21471095 -0.02692437 C15.90592813 -0.0258505 18.59712183 -0.03074858 21.28833395 -0.03552979 C27.6408084 -0.04660319 33.99322371 -0.04707449 40.34570312 -0.04101562 C46.88331448 -0.03497577 53.42071062 -0.04729197 59.95828527 -0.06858569 C65.58654423 -0.08623868 71.2147349 -0.09219728 76.8430205 -0.08894795 C80.19786373 -0.08714096 83.55243111 -0.09103888 86.90727043 -0.10366249 C90.65058786 -0.11602028 94.39340907 -0.10923862 98.13671875 -0.09765625 C99.23774933 -0.10529999 100.33877991 -0.11294373 101.47317505 -0.12081909 C110.69444543 -0.0578637 117.41584019 1.71365609 124.13305664 8.2746582 C127.60544608 13.18389844 128.25862792 17.1371122 128.25331116 23.07061768 C128.25537315 24.84583801 128.25537315 24.84583801 128.25747681 26.65692139 C128.25388153 27.95164368 128.25028625 29.24636597 128.24658203 30.58032227 C128.2462999 31.96020506 128.24645841 33.340088 128.24702454 34.7199707 C128.24731149 38.46342926 128.24143121 42.20685578 128.23445058 45.95030689 C128.2282001 49.86341502 128.2276119 53.77652388 128.22642517 57.68963623 C128.22331686 65.09853046 128.2151102 72.50740994 128.20507568 79.91629767 C128.19389903 88.35153625 128.18840018 96.78677553 128.18338025 105.22201967 C128.17292718 122.57290772 128.1553374 139.9237814 128.13305664 157.2746582 C128.89266662 157.27097103 129.65227659 157.26728386 130.43490505 157.26348495 C148.93933197 157.17505091 167.44371656 157.10890825 185.9483099 157.06740952 C194.89709512 157.04680632 203.84573906 157.01872872 212.79443359 156.97290039 C220.59640667 156.93296382 228.39827741 156.90720909 236.20034987 156.89830422 C240.32946005 156.89310098 244.45827749 156.88091861 248.58729362 156.85173798 C252.47872824 156.82446083 256.36975128 156.81623782 260.26127243 156.82222748 C261.68462808 156.82113271 263.10799839 156.81325204 264.53127098 156.7978363 C273.25284516 156.70805495 281.28474951 156.81371538 288.00337124 162.99554062 C293.17864676 168.45789002 294.38033257 174.04803069 294.40771484 181.49487305 C294.41282578 182.19181274 294.41793671 182.88875244 294.42320251 183.60681152 C294.43704227 185.89982836 294.4361441 188.19254216 294.43383789 190.4855957 C294.43773173 192.0977896 294.44206781 193.70998249 294.44682312 195.32217407 C294.45427616 198.70301634 294.45400353 202.08375421 294.44873047 205.46459961 C294.44297817 209.75197759 294.45976756 214.03891756 294.48307514 218.32622337 C294.49797701 221.66043509 294.49866144 224.9945458 294.49556541 228.32878494 C294.49607179 229.90648888 294.50117764 231.48419953 294.51137733 233.06187057 C294.64874066 257.30772929 288.96948513 276.94846643 271.94555664 294.9621582 C257.60367183 308.82927717 239.39361608 315.65650883 219.63452148 315.50170898 C218.14003479 315.50214706 218.14003479 315.50214706 216.61535645 315.50259399 C213.35814365 315.50121287 210.10116643 315.4857095 206.84399414 315.4699707 C204.57142258 315.46623624 202.29884939 315.46339131 200.02627563 315.46139526 C194.07183311 315.45379295 188.11748959 315.4341739 182.16308594 315.4119873 C176.07626687 315.39145532 169.98943167 315.38237787 163.90258789 315.37231445 C151.97936753 315.35092462 140.05622035 315.31683007 128.13305664 315.2746582 C128.1703686 336.83382594 128.2304411 358.39282612 128.31695938 379.95185471 C128.35661958 389.96408068 128.38907777 399.97622954 128.40405273 409.98852539 C128.4171372 418.72422313 128.4442731 427.45975025 128.48766971 436.19535184 C128.51013307 440.81266515 128.52597653 445.42976924 128.52494049 450.04714203 C128.52576808 486.69202747 132.17594718 517.93172232 158.94555664 545.20825195 C184.47302841 570.22233088 215.49882288 575.38007344 250.01307297 575.44332314 C253.16036035 575.45059275 256.30750095 575.46633302 259.45474243 575.48466492 C268.39404339 575.53665938 277.33325597 575.585077 286.27270508 575.60058594 C291.76679695 575.6107353 297.26050484 575.64022172 302.75444412 575.68190575 C304.82974962 575.69410831 306.90510953 575.69935696 308.98044968 575.69710732 C330.70081738 575.67934694 349.88432505 579.45142942 366.00024414 595.1418457 C367.05598633 596.19758789 367.05598633 596.19758789 368.13305664 597.2746582 C369.06504883 598.08290039 369.06504883 598.08290039 370.01586914 598.9074707 C380.71877998 608.45849876 388.0124092 625.20607253 389.32873344 639.38195992 C389.41001594 641.48885072 389.43751165 643.58833333 389.43945312 645.69677734 C389.44777664 646.48503403 389.45610016 647.27329071 389.4646759 648.08543396 C389.48853884 650.66027933 389.49751595 653.23487067 389.50415039 655.80981445 C389.51313048 657.61624724 389.52225255 659.42267933 389.5315094 661.22911072 C389.54793438 665.0022054 389.55568837 668.775212 389.55859375 672.54833984 C389.56398961 677.36908264 389.60174695 682.18899239 389.64733791 687.00949955 C389.6771501 690.73541767 389.68431811 694.4611354 389.6853199 698.1871624 C389.68950918 699.96409381 389.7018913 701.74102654 389.72283745 703.51783943 C389.90450231 720.25005098 389.90450231 720.25005098 385.51234436 725.88475037 C381.50048496 729.92749992 378.21246786 733.13558891 372.22285175 733.40608597 C371.02527335 733.40906063 369.82769495 733.41203529 368.59382629 733.4151001 C367.59245189 733.41955678 367.59245189 733.41955678 366.57084769 733.4241035 C364.3283064 733.43279118 362.08581851 733.43429893 359.84326172 733.43579102 C358.23645921 733.44041994 356.6296578 733.4454447 355.02285767 733.45083618 C350.64759687 733.46397376 346.27235144 733.47041029 341.89707398 733.47484684 C339.15423201 733.47778144 336.41139419 733.48188746 333.66855431 733.48635101 C325.06146731 733.50004283 316.45438985 733.50969558 307.84729272 733.5135529 C297.96312363 733.5180079 288.07909461 733.53542841 278.19496804 733.5645535 C270.52920028 733.586343 262.86347135 733.59626664 255.19767302 733.59759402 C250.63392767 733.5986318 246.07031363 733.60431363 241.50660133 733.62241364 C172.20371687 733.88131924 109.47654498 714.90811611 57.58618164 667.50512695 C55.98799106 666.05199507 54.37396408 664.61603378 52.74243164 663.20043945 C32.41548997 645.46354358 16.53719528 623.54590163 3.13305664 600.2746582 C2.47563477 599.1505957 1.81821289 598.0265332 1.14086914 596.8684082 C-21.18958556 557.05024801 -30.03173176 511.20459422 -30.00738525 465.99809265 C-30.00997333 464.06216731 -30.01298772 462.12624249 -30.01638865 460.19031841 C-30.02440879 454.89919563 -30.02624541 449.60808645 -30.02698612 444.31695831 C-30.02884522 438.59986695 -30.03639641 432.88278251 -30.04312134 427.16569519 C-30.05666577 414.68285586 -30.0627222 402.20001975 -30.067132 389.71717429 C-30.06989883 381.92197651 -30.07413678 374.12677997 -30.07863617 366.33158302 C-30.09081963 344.74191566 -30.10115879 323.15224979 -30.10451126 301.56257915 C-30.10473289 300.16876804 -30.10495467 298.77495693 -30.10517661 297.38114582 C-30.10539725 295.98406837 -30.10561773 294.58699091 -30.10583806 293.18991345 C-30.1062806 290.38735115 -30.10672772 287.58478886 -30.10717773 284.78222656 C-30.10728713 284.08736378 -30.10739652 283.39250099 -30.10750922 282.67658176 C-30.11114388 260.12051803 -30.12708467 237.56448636 -30.1503681 215.00843492 C-30.17496013 191.1409792 -30.18867692 167.27354386 -30.18987918 143.40607482 C-30.19079637 130.40231272 -30.19656049 117.39859268 -30.21469879 104.39484215 C-30.2300783 93.33039107 -30.23523264 82.26599509 -30.22696069 71.20153537 C-30.2230477 65.55599455 -30.22401577 59.91056477 -30.23801804 54.26503754 C-30.25071656 49.09807495 -30.24959513 43.93130731 -30.23742732 38.76434515 C-30.23546341 36.89448078 -30.23858066 35.02460278 -30.24727169 33.15475758 C-30.25833661 30.61348725 -30.25089529 28.07290833 -30.23888016 25.53165722 C-30.24647535 24.80555568 -30.25407054 24.07945414 -30.2618959 23.33134952 C-30.20021683 17.28968888 -28.90634287 11.81947411 -25.07006836 7.0324707 C-24.42553711 6.49364258 -23.78100586 5.95481445 -23.11694336 5.3996582 C-22.48272461 4.84536133 -21.84850586 4.29106445 -21.19506836 3.7199707 C-14.60281658 -0.37253459 -7.51189569 -0.01687142 0 0 Z " fill="#007291" transform="translate(407.866943359375,235.725341796875)"/>
<path d="M0 0 C1.45704774 -0.00464381 2.9140943 -0.00967048 4.37113953 -0.01504517 C8.28187955 -0.02800497 12.19260258 -0.03457928 16.10336065 -0.03905582 C18.55282785 -0.04200819 21.0022906 -0.0461164 23.45175552 -0.05056 C31.13506255 -0.06418003 38.81835915 -0.07387824 46.50167739 -0.07776189 C55.33826312 -0.0822553 64.17469516 -0.09988546 73.01123416 -0.12876248 C79.87103585 -0.15039577 86.73079427 -0.16046674 93.5906297 -0.16180301 C97.67639506 -0.16284813 101.76201484 -0.16869564 105.84774399 -0.18662262 C109.68433795 -0.20313617 113.52067717 -0.20524306 117.35729408 -0.19648361 C118.76010256 -0.1957155 120.16292498 -0.20002611 121.56569862 -0.20994186 C137.84521375 -0.31823012 137.84521375 -0.31823012 144.67236328 5.59863281 C149.62649347 11.40204247 151.00841664 15.04926329 151.03686523 22.69921875 C151.04343643 23.46560165 151.05000763 24.23198456 151.05677795 25.02159119 C151.07651232 27.56289781 151.08818147 30.10414496 151.09814453 32.64550781 C151.10222006 33.51767189 151.10629559 34.38983597 151.11049461 35.28842926 C151.13136818 39.91575381 151.1456574 44.5430487 151.1550293 49.17041016 C151.16602235 53.91426638 151.20033505 58.65764424 151.240201 63.40133286 C151.26657209 67.07691211 151.27473972 70.75238169 151.27831078 74.42804718 C151.28313378 76.17406652 151.29462266 77.92008242 151.31334877 79.666008 C151.52655224 100.88407634 146.37216064 119.01693053 131.85986328 135.16113281 C131.08255859 136.07765625 131.08255859 136.07765625 130.28955078 137.01269531 C118.88184896 149.56689983 101.11579439 157.07459485 84.39198494 158.349226 C81.84438997 158.42247861 79.3032681 158.43977841 76.75463867 158.43237305 C75.79858734 158.43759979 74.84253601 158.44282654 73.85751343 158.44821167 C71.79786362 158.45838694 69.73818857 158.46422066 67.67851448 158.46609306 C64.4000952 158.46979134 61.12196924 158.48661527 57.84361267 158.5068512 C48.52771512 158.56190942 39.21177434 158.5927775 29.89575195 158.61743164 C24.17823889 158.63346644 18.46093293 158.66385265 12.74352837 158.70219612 C10.58499823 158.71371161 8.4264308 158.71977527 6.26786995 158.71987724 C-24.58041757 158.72186195 -51.59365293 163.87205528 -75.14013672 185.16113281 C-76.05537109 185.98226562 -76.97060547 186.80339844 -77.91357422 187.64941406 C-95.85414922 204.61004169 -108.36600561 229.90172168 -109.23242807 254.81488383 C-109.26788965 258.08646455 -109.27150468 261.35672424 -109.26470947 264.62849426 C-109.26611962 265.88515371 -109.26752977 267.14181315 -109.26898265 268.43655318 C-109.27203254 271.18858186 -109.27194095 273.94058634 -109.26942635 276.69261551 C-109.26535445 281.17118717 -109.26814196 285.64974003 -109.27177429 290.12831116 C-109.27586013 295.78874748 -109.27810382 301.44917957 -109.27819028 307.10961737 C-109.2783933 318.23396065 -109.29086905 329.35826049 -109.30780029 340.48258972 C-109.31040601 342.23535515 -109.31300482 343.98812059 -109.31559682 345.74088603 C-109.31953512 348.39699859 -109.32348168 351.05311113 -109.32745804 353.70922363 C-109.34239586 363.71671054 -109.35602488 373.72419876 -109.36816406 383.73168945 C-109.36927762 384.64621719 -109.37039118 385.56074492 -109.37153849 386.50298562 C-109.38911443 401.32353631 -109.39198239 416.1440597 -109.39031366 430.96461908 C-109.38903392 446.19072289 -109.40678629 461.41672521 -109.44133162 476.64279002 C-109.46196312 486.02888293 -109.46733305 495.4147326 -109.45300332 504.80083837 C-109.4445339 511.23497089 -109.45430274 517.66891448 -109.47831282 524.10300712 C-109.49159786 527.81270997 -109.49684706 531.52195947 -109.48019218 535.23165894 C-109.46231114 539.25909335 -109.48320294 543.28542061 -109.50762939 547.31282043 C-109.49627402 548.47732926 -109.48491864 549.64183808 -109.47321916 550.84163505 C-109.56039176 558.24188749 -110.83977845 564.02252884 -115.14013672 570.16113281 C-119.71269723 574.51386051 -124.09733907 576.27792684 -130.34440613 576.31503296 C-131.42239471 576.32363342 -132.5003833 576.33223389 -133.61103821 576.34109497 C-134.79392929 576.34535492 -135.97682037 576.34961487 -137.19555664 576.35400391 C-139.06425415 576.36627014 -139.06425415 576.36627014 -140.97070312 576.37878418 C-145.10400064 576.40364846 -149.23726157 576.42031091 -153.37060547 576.43457031 C-154.79531676 576.43993151 -156.22002798 576.44530902 -157.64473915 576.45070267 C-163.57333976 576.47232902 -169.50193768 576.49106377 -175.43056774 576.50232506 C-183.91654128 576.51855175 -192.40205605 576.55170054 -200.88785666 576.60872591 C-206.85996727 576.6474851 -212.8319555 576.66696489 -218.80418855 576.67224562 C-222.36824044 576.67589153 -225.93180272 576.68783004 -229.495718 576.72034836 C-233.47652864 576.75614984 -237.45676832 576.75204286 -241.43774414 576.74462891 C-242.61051407 576.76103424 -243.783284 576.77743958 -244.99159241 576.79434204 C-251.93359754 576.74146447 -256.86694787 575.89365084 -262.14013672 571.16113281 C-266.33974795 566.3715305 -268.2631937 562.27754303 -268.27156448 555.91670227 C-268.27540563 554.8231436 -268.27924677 553.72958492 -268.28320432 552.60288811 C-268.28233783 551.39661325 -268.28147135 550.1903384 -268.28057861 548.94750977 C-268.28354974 547.66951067 -268.28652086 546.39151157 -268.28958201 545.07478523 C-268.29766136 541.51938695 -268.29944214 537.96400885 -268.30017948 534.40860248 C-268.3020288 530.57578663 -268.3095763 526.74298129 -268.3163147 522.91017151 C-268.32991281 514.51830948 -268.33592716 506.12645221 -268.34032536 497.73458099 C-268.34308952 492.48510131 -268.34732761 487.23562346 -268.35182953 481.98614502 C-268.36403213 467.43031937 -268.37432427 452.8744952 -268.37770462 438.31866455 C-268.37803397 436.92016171 -268.37803397 436.92016171 -268.37836997 435.4934063 C-268.37858825 434.55888948 -268.37880653 433.62437267 -268.37903142 432.66153717 C-268.37947488 430.76801046 -268.37992144 428.87448374 -268.38037109 426.98095703 C-268.38059252 426.04171103 -268.38081395 425.10246504 -268.38104209 424.13475704 C-268.38497574 408.97299479 -268.40238124 393.81128103 -268.42573062 378.64953744 C-268.44955197 363.05400904 -268.46191162 347.45850482 -268.46307254 331.86295795 C-268.46398413 323.11903054 -268.46960352 314.37516602 -268.48789215 305.6312561 C-268.50344042 298.1712499 -268.50832885 290.71132595 -268.50015405 283.25130659 C-268.49629664 279.45657954 -268.49692959 275.66201731 -268.5112114 271.86731148 C-268.73011284 210.01010958 -253.82390842 152.29997794 -215.14013672 103.16113281 C-214.43501953 102.26265625 -213.72990234 101.36417969 -213.00341797 100.43847656 C-200.6140886 84.97961855 -186.76466595 70.3617014 -171.14013672 58.16113281 C-170.17978516 57.38382812 -169.21943359 56.60652344 -168.22998047 55.80566406 C-120.67255962 17.98819539 -60.24471215 0.04562698 0 0 Z " fill="#007291" transform="translate(1804.14013671875,392.8388671875)"/>
</svg>
